<?xml version="1.0" encoding="iso-8859-1"?>
<!-- Generator: Adobe Illustrator 19.0.0, SVG Export Plug-In . SVG Version: 6.00 Build 0)  -->
<svg version="1.1" id="Layer_1" xmlns="http://www.w3.org/2000/svg" xmlns:xlink="http://www.w3.org/1999/xlink" x="0px" y="0px"
	 viewBox="0 0 482.505 482.505" style="enable-background:new 0 0 482.505 482.505;" xml:space="preserve">
<g>
	<g>
		<path d="M193.178,93.976c-24.861,0-45.087,20.226-45.087,45.087c0,24.865,20.226,45.091,45.087,45.091
			c24.865,0,45.091-20.226,45.091-45.091C238.269,114.202,218.043,93.976,193.178,93.976z M193.178,164.462
			c-14.005,0-25.394-11.394-25.394-25.399c0-14.005,11.389-25.394,25.394-25.394s25.399,11.389,25.399,25.394
			C218.577,153.067,207.183,164.462,193.178,164.462z"/>
	</g>
</g>
<g>
	<g>
		<path d="M148.236,178.49c-3.12-11.635-10.582-21.356-21.01-27.38c-10.423-6.014-22.582-7.615-34.212-4.505
			c-11.635,3.12-21.356,10.582-27.38,21.01c-12.428,21.534-5.024,49.159,16.505,61.591c7.082,4.087,14.822,6.029,22.466,6.029
			c15.596,0,30.784-8.086,39.12-22.534C149.75,202.274,151.351,190.12,148.236,178.49z M126.673,202.856
			c-7,12.13-22.548,16.298-34.688,9.293c-12.125-7-16.298-22.563-9.293-34.688c3.389-5.875,8.865-10.077,15.418-11.832
			c2.188-0.586,4.409-0.88,6.611-0.88c4.404,0,8.745,1.154,12.659,3.413v0.005c5.875,3.389,10.077,8.865,11.832,15.418
			C130.971,190.139,130.067,196.981,126.673,202.856z"/>
	</g>
</g>
<g>
	<g>
		<path d="M143.731,269.803c-6.024-10.428-15.745-17.889-27.375-21.01c-11.639-3.115-23.784-1.519-34.216,4.5v0.005
			c-21.529,12.433-28.933,40.063-16.505,61.591c8.341,14.447,23.529,22.534,39.125,22.534c7.644,0,15.385-1.942,22.466-6.029
			c10.428-6.024,17.889-15.745,21.01-27.38C151.351,292.385,149.75,280.231,143.731,269.803z M129.212,298.918
			c-1.755,6.553-5.957,12.029-11.832,15.418c-12.144,7.01-27.688,2.837-34.688-9.293c-7-12.125-2.832-27.688,9.293-34.692
			c12.13-7.005,27.688-2.822,34.692,9.298C130.067,285.524,130.971,292.365,129.212,298.918z"/>
	</g>
</g>
<g>
	<g>
		<path d="M193.178,298.351c-24.861,0-45.087,20.226-45.087,45.087c0,24.865,20.226,45.091,45.087,45.091
			c24.865,0,45.091-20.226,45.091-45.091C238.269,318.577,218.043,298.351,193.178,298.351z M193.178,368.837
			c-14.005,0-25.394-11.394-25.394-25.399s11.389-25.394,25.394-25.394s25.399,11.389,25.399,25.394
			S207.183,368.837,193.178,368.837z"/>
	</g>
</g>
<g>
	<g>
		<path d="M304.221,253.293c-21.534-12.428-49.163-5.024-61.596,16.51c-12.428,21.534-5.024,49.159,16.505,61.591
			c7.086,4.087,14.827,6.029,22.471,6.029c15.596,0,30.784-8.087,39.125-22.534C333.154,293.361,325.75,265.731,304.221,253.293z
			 M303.668,305.043c-6.995,12.139-22.563,16.303-34.692,9.293c-12.125-7-16.298-22.563-9.298-34.688
			c7.005-12.12,22.567-16.303,34.697-9.303C306.5,277.351,310.668,292.918,303.668,305.043z"/>
	</g>
</g>
<g>
	<g>
		<path d="M320.726,167.615c-6.024-10.428-15.745-17.889-27.38-21.01c-11.644-3.115-23.793-1.51-34.216,4.505
			c-21.529,12.433-28.933,40.058-16.5,61.591c8.341,14.447,23.529,22.534,39.125,22.534c7.644,0,15.385-1.942,22.466-6.029
			C325.75,216.774,333.154,189.149,320.726,167.615z M294.375,212.149c-12.139,7.005-27.688,2.836-34.692-9.293
			c-7.005-12.125-2.832-27.688,9.293-34.688c3.913-2.264,8.26-3.418,12.659-3.418c2.207,0,4.428,0.293,6.615,0.88
			c6.553,1.755,12.029,5.957,15.418,11.832C310.673,189.587,306.5,205.149,294.375,212.149z"/>
	</g>
</g>
<g>
	<g>
		<path d="M193.178,211.51c-16.399,0-29.74,13.341-29.74,29.74c0,16.404,13.341,29.745,29.74,29.745
			c16.404,0,29.745-13.341,29.745-29.745C222.923,224.851,209.582,211.51,193.178,211.51z M193.178,251.303
			c-5.538,0-10.048-4.51-10.048-10.053c0-5.538,4.51-10.048,10.048-10.048c5.543,0,10.053,4.51,10.053,10.048
			C203.231,246.793,198.721,251.303,193.178,251.303z"/>
	</g>
</g>
<g>
	<g>
		<path d="M482.418,332.038h-0.005c-0.697,0-55.428-0.986-58.861-96.659c-3.737-104.063-72.309-128.278-97.096-133.624
			c-34.703-33.168-81.599-53.683-133.279-53.683C86.659,48.072,0,134.731,0,241.25s86.659,193.183,193.178,193.183
			s193.183-86.663,193.183-193.183c0-39.905-12.167-77.019-32.98-107.838c23.623,14.436,48.37,43.556,50.49,102.669
			c4.111,114.486,77.668,115.649,78.63,115.649c0.005,0,0.005,0,0.005,0L482.418,332.038z M366.668,241.25
			c0,95.663-77.827,173.49-173.49,173.49c-95.659,0-173.486-77.827-173.486-173.49c0-95.659,77.827-173.486,173.486-173.486
			C288.841,67.764,366.668,145.591,366.668,241.25z"/>
	</g>
</g>
<g>
</g>
<g>
</g>
<g>
</g>
<g>
</g>
<g>
</g>
<g>
</g>
<g>
</g>
<g>
</g>
<g>
</g>
<g>
</g>
<g>
</g>
<g>
</g>
<g>
</g>
<g>
</g>
<g>
</g>
</svg>
