<?xml version="1.0" encoding="iso-8859-1"?>
<!-- Generator: Adobe Illustrator 19.0.0, SVG Export Plug-In . SVG Version: 6.00 Build 0)  -->
<svg version="1.1" id="Layer_1" xmlns="http://www.w3.org/2000/svg" xmlns:xlink="http://www.w3.org/1999/xlink" x="0px" y="0px"
	 viewBox="0 0 512.001 512.001" style="enable-background:new 0 0 512.001 512.001;" xml:space="preserve">
<g>
	<g>
		<path d="M504.945,67.384c-9.408-9.409-24.716-9.409-34.124,0L343.342,194.862l-75.054-130.01
			c-6.665-11.546-18.599-18.438-31.928-18.438c-0.002,0-0.007,0-0.009,0c-13.325,0.003-25.255,6.898-31.91,18.438L5,410.286
			c-6.665,11.539-6.666,25.32-0.003,36.863c6.664,11.545,18.6,18.438,31.932,18.438h398.871c13.331,0,25.268-6.893,31.932-18.437
			c6.663-11.543,6.662-25.323-0.002-36.862L368.324,238.13l136.621-136.622C514.353,92.1,514.353,76.792,504.945,67.384z
			 M452.785,418.916c3.545,6.137,3.545,13.466,0.001,19.606c-3.545,6.142-9.896,9.808-16.988,9.808H36.929
			c-7.092,0-13.442-3.667-16.988-9.808c-3.544-6.14-3.543-13.469,0.002-19.607L219.387,73.476c3.54-6.138,9.883-9.804,16.968-9.806
			c0.001,0,0.003,0,0.005,0c7.089,0,13.438,3.667,16.984,9.809l77.366,134.016l-19.026,19.026L243.83,108.992
			c-1.54-2.669-4.389-4.314-7.472-4.314s-5.931,1.645-7.472,4.314L55.455,409.391c-1.542,2.67-1.542,5.959,0,8.628
			s4.389,4.314,7.472,4.314h346.874c3.083,0,5.931-1.645,7.472-4.314c1.542-2.67,1.542-5.959,0-8.628l-80.607-139.602l19.026-19.026
			L452.785,418.916z M253.35,284.854c-10.424-0.793-21.12,2.778-29.072,10.732c-14.464,14.465-14.464,38,0,52.464
			c7.232,7.232,16.732,10.849,26.232,10.849c9.5,0,19.001-3.617,26.233-10.849c7.953-7.954,11.523-18.649,10.73-29.071l36.56-36.56
			l70.823,122.657H77.871l158.488-274.514l62.693,108.591L253.35,284.854z M264.541,335.849c-7.737,7.737-20.325,7.737-28.062,0
			c-7.736-7.736-7.736-20.325,0-28.062c3.869-3.869,8.95-5.803,14.031-5.803c5.081,0,10.162,1.934,14.031,5.803
			C272.278,315.523,272.278,328.112,264.541,335.849z M492.743,89.306L281.145,300.905c-1.279-1.873-2.74-3.658-4.401-5.319
			s-3.447-3.122-5.319-4.401L483.022,79.585c2.68-2.679,7.04-2.679,9.721,0C495.423,82.266,495.423,86.627,492.743,89.306z"/>
	</g>
</g>
<g>
</g>
<g>
</g>
<g>
</g>
<g>
</g>
<g>
</g>
<g>
</g>
<g>
</g>
<g>
</g>
<g>
</g>
<g>
</g>
<g>
</g>
<g>
</g>
<g>
</g>
<g>
</g>
<g>
</g>
</svg>
